<svg width="26" height="26" viewBox="0 0 26 26" fill="none" xmlns="http://www.w3.org/2000/svg">
<circle cx="12.5769" cy="13.4226" r="12.5769" fill="#EA0E0E"/>
<path d="M15.4468 5.65403C15.7494 5.12586 15.5685 4.45126 15.0428 4.14727C14.5171 3.84328 13.8456 4.02502 13.543 4.55318L13.0153 5.47442L12.4875 4.55318C12.1849 4.02502 11.5134 3.84328 10.9877 4.14727C10.462 4.45126 10.2811 5.12586 10.5837 5.65403L11.748 7.68643L8.06524 14.1149H5.09831C4.49173 14.1149 4 14.6089 4 15.2183C4 15.8277 4.49173 16.3217 5.09831 16.3217H15.4324C15.523 16.0826 15.6184 15.6721 15.5169 15.2949C15.3644 14.7279 14.8 14.1149 13.8542 14.1149H10.5997L15.4468 5.65403Z" fill="white"/>
<path d="M8.63641 17.5419C8.44902 17.3328 8.02917 16.9987 7.66102 16.8888C7.09967 16.7211 6.67413 16.8263 6.45942 16.9179L5.64132 18.346C5.33874 18.8741 5.51963 19.5487 6.04535 19.8527C6.57107 20.1567 7.24254 19.975 7.54512 19.4468L8.63641 17.5419Z" fill="white"/>
<path d="M19.2295 16.3217H20.9017C21.5083 16.3217 22 15.8277 22 15.2183C22 14.6089 21.5083 14.1149 20.9017 14.1149H17.9653L14.6575 8.34108C14.4118 8.57567 13.9407 9.17498 13.8695 9.85446C13.778 10.728 13.9152 11.4636 14.3271 12.1839C15.7118 14.6056 17.0987 17.0262 18.4854 19.4468C18.788 19.975 19.4594 20.1567 19.9852 19.8527C20.5109 19.5487 20.6918 18.8741 20.3892 18.346L19.2295 16.3217Z" fill="white"/>
</svg>
