<svg width="233" height="25" viewBox="0 0 233 25" fill="none" xmlns="http://www.w3.org/2000/svg">
<path fill-rule="evenodd" clip-rule="evenodd" d="M28.3622 8.59844L26.1114 12.1259L26.7072 12.8818C26.7072 12.8818 33.7246 4.88195 39.9475 8.8504L41.3378 7.27562L33.2612 5.32289L28.3622 8.59844Z" fill="url(#paint0_linear_786_1085)"/>
<path fill-rule="evenodd" clip-rule="evenodd" d="M29.0243 6.45666L18.6968 16.2833C16.3798 18.488 13.2021 20.1258 9.89198 17.9841C8.56795 17.1022 7.97213 15.5904 7.97213 14.1416C7.97213 12.6928 8.70036 11.37 9.69339 10.1102C10.8188 8.72434 13.6655 7.08657 16.0488 7.46452L16.7108 7.84247L18.432 6.01572L18.0348 5.63777C13.9303 3.49607 11.216 5.00786 7.77353 8.22041C6.05228 9.85819 5.19166 11.9369 5.19166 14.0786C5.19166 16.2203 6.05228 18.299 7.77353 19.9368C11.1498 23.1493 17.2404 21.3226 20.6829 18.11L31.0104 8.28341C33.3274 6.07871 37.1009 6.07871 39.418 8.28341L41.3379 6.45666C39.6166 4.81889 37.4319 4 35.1811 4C32.9302 4 30.7456 4.81889 29.0243 6.45666Z" fill="url(#paint1_linear_786_1085)"/>
<path d="M41.9998 6.89763C38.3587 3.43311 32.4668 3.43311 28.8257 6.89763L17.77 17.4172C15.3205 19.7478 11.2822 19.7478 8.76654 17.4172C7.50871 16.2203 6.91288 14.7085 6.91288 13.1968C6.91288 11.622 7.50871 10.1102 8.76654 8.91335C11.216 6.58268 15.2543 6.58268 17.77 8.91335L18.1672 9.2913L20.2195 7.33857L19.8222 6.96062C16.1811 3.49611 10.3554 3.49611 6.71428 6.96062C4.86063 8.72438 4 10.9291 4 13.1968C4 15.4644 4.92683 17.7321 6.71428 19.4329C10.3554 22.8974 16.2473 22.8344 19.8884 19.3699L30.9441 8.85036C33.3936 6.51969 37.4319 6.51972 39.9475 8.8504L41.9998 6.89763Z" fill="#868685"/>
<path fill-rule="evenodd" clip-rule="evenodd" d="M28.8921 6.96054L22.3381 13.1967L17.8363 17.4171C17.8363 17.4171 14.7248 20.2517 10.8851 18.6769L6.78065 19.4328C10.2231 22.7084 16.3137 22.8343 19.8886 19.4328L30.9443 8.91327C33.3937 6.58259 37.4321 6.58259 39.9477 8.91327L42 6.96054C40.2126 5.25978 37.8293 4.3779 35.446 4.3779C33.0627 4.3779 30.6795 5.25978 28.8921 6.96054Z" fill="url(#paint2_linear_786_1085)"/>
<path d="M30.9443 17.4172L26.9722 13.5747L24.8537 15.5904L28.8921 19.3699L30.9443 17.4172Z" fill="#989897"/>
<path d="M23.9267 10.74L22.4703 9.29124L20.3518 11.307L21.8082 12.6928L23.9267 10.74Z" fill="#989897"/>
<path fill-rule="evenodd" clip-rule="evenodd" d="M20.2858 7.33853C20.5506 7.65348 15.7178 5.76374 12.8711 5.88973C10.5541 6.01571 7.77362 7.40152 4.72833 10.2361C4.86074 9.60621 5.12555 8.91331 5.58896 8.2204C7.57502 5.25981 11.8119 3.37008 16.3798 4.75588C16.3798 4.75588 18.7631 5.51178 20.2858 7.27553V7.33853Z" fill="url(#paint3_linear_786_1085)"/>
<path d="M21.8744 11.2441C21.742 11.1181 21.742 10.9291 21.8744 10.8031C22.0068 10.6772 22.2054 10.6772 22.3378 10.8031C22.4702 10.9291 22.4702 11.1181 22.3378 11.2441C22.2054 11.3701 22.0068 11.3701 21.8744 11.2441Z" fill="#FEFEFE"/>
<path d="M27.1708 16.0943C27.1046 16.0943 27.0384 16.0313 26.9722 16.0313C26.906 15.9683 26.8398 15.7794 26.9722 15.7164C27.1046 15.5904 27.237 15.5904 27.3694 15.7164C27.4356 15.7794 27.4357 15.8424 27.4357 15.9053H27.6343C27.6343 15.7794 27.568 15.7164 27.5018 15.5904C27.3032 15.4014 27.0384 15.4014 26.8398 15.5904C26.6412 15.7794 26.6412 16.0313 26.8398 16.2203C26.906 16.2833 27.0384 16.3463 27.1708 16.3463V16.0943ZM28.0977 16.1573C27.8991 15.9683 27.6343 15.9683 27.4357 16.1573C27.2371 16.3463 27.2371 16.5982 27.4357 16.7872C27.6343 16.9762 27.8991 16.9762 28.0977 16.7872C28.2963 16.5982 28.2963 16.3463 28.0977 16.1573ZM27.9653 16.2833C28.0977 16.4093 28.0315 16.5353 27.9653 16.5982C27.8991 16.6612 27.7005 16.7242 27.6343 16.5982C27.5018 16.4723 27.5681 16.3463 27.6343 16.2833C27.7005 16.2203 27.8991 16.1573 27.9653 16.2833ZM28.4287 17.7321L28.7597 17.4171C28.8259 17.3541 28.9583 17.2912 29.0245 17.4171C29.0907 17.4801 29.0907 17.6061 28.9583 17.6691L28.6273 17.9841L28.7597 18.11L29.0907 17.7951C29.2893 17.6061 29.2893 17.4171 29.1569 17.2912C29.0907 17.2282 28.9583 17.1652 28.8259 17.1652C28.8921 17.0392 28.8259 16.9762 28.7597 16.8502C28.6935 16.7872 28.6273 16.7242 28.4949 16.7872L28.5611 16.7242L28.4287 16.5982L27.7667 17.1652L27.8991 17.2912L28.2301 16.9762C28.2963 16.9132 28.4287 16.8502 28.4949 16.9762C28.5611 17.0392 28.5611 17.1652 28.4287 17.2282L28.0977 17.5431L28.2301 17.6691L28.4287 17.7321Z" fill="#212121"/>
<path d="M66.677 16.1756C66.677 16.1756 66.677 16.1756 66.677 16.2887C66.677 16.4018 66.677 16.5149 66.677 16.7411C66.677 16.9107 66.6214 17.1369 66.6214 17.3631C66.6214 17.5893 66.6214 17.8155 66.5658 18.0982C66.5102 18.6637 66.4547 19.3423 66.4547 20.0774C65.3429 20.6994 64.2311 21.1518 63.1193 21.378C62.0075 21.6607 60.8956 21.7738 59.7838 21.7738C58.5053 21.7738 57.2267 21.5476 56.0593 21.0952C54.8919 20.6429 53.8357 20.0208 52.9463 19.2292C52.0568 18.4375 51.3342 17.4196 50.7783 16.2887C50.2224 15.1577 50 13.8571 50 12.4435C50 11.256 50.2224 10.125 50.6671 8.99405C51.1118 7.86309 51.7233 6.84524 52.5571 5.94048C53.391 5.03571 54.4472 4.3006 55.7258 3.79167C57.0043 3.22619 58.4497 3 60.1174 3C61.2292 3 62.2298 3.11309 63.2304 3.33928C64.2311 3.56548 65.2317 3.90476 66.2879 4.41369C66.3435 5.20536 66.3435 5.94047 66.3991 6.50595C66.3991 6.78869 66.4547 7.01488 66.4547 7.29762C66.4547 7.52381 66.4547 7.75 66.5102 7.97619C66.5102 8.14583 66.5102 8.31547 66.5102 8.42857C66.5102 8.54166 66.5102 8.59822 66.5102 8.59822C66.1211 7.69345 65.6208 6.95833 65.0649 6.39286C64.509 5.82738 63.9531 5.43155 63.3972 5.14881C62.8413 4.86607 62.2854 4.69643 61.7851 4.63988C61.2848 4.58333 60.8401 4.52679 60.5621 4.52679C59.4503 4.52679 58.4497 4.69643 57.5602 5.09226C56.6708 5.48809 55.9481 6.05357 55.3367 6.73214C54.7252 7.41071 54.2804 8.25893 53.9469 9.16369C53.6134 10.125 53.4466 11.0863 53.4466 12.1607C53.4466 13.0655 53.5578 14.0268 53.8357 14.9881C54.0581 15.9494 54.5028 16.8542 55.0587 17.6458C55.6146 18.4375 56.3929 19.1161 57.2823 19.625C58.2273 20.1339 59.3391 20.4167 60.7289 20.4167C61.0624 20.4167 61.4515 20.3601 61.9519 20.3036C62.4522 20.247 62.9525 20.0208 63.5084 19.7381C64.0643 19.4554 64.6202 19.0595 65.1761 18.4941C65.732 17.9286 66.2323 17.1935 66.677 16.2887V16.1756ZM228.889 20.6429C228.889 20.4167 228.722 20.247 228.5 20.247C228.277 20.247 228.111 20.4167 228.111 20.6429C228.111 20.8691 228.277 21.0387 228.5 21.0387C228.722 21.0387 228.889 20.8691 228.889 20.6429ZM228.277 17.3066C228.333 17.4762 228.444 17.7024 228.444 18.0417C228.444 18.6637 227.999 19.1726 227.277 19.1726C226.61 19.1726 226.054 18.7768 226.054 18.0417C226.054 17.7024 226.109 17.4762 226.221 17.3631L225.776 17.25C225.72 17.4196 225.609 17.7024 225.609 18.0417C225.609 19.1161 226.332 19.7946 227.277 19.7946C228.222 19.7946 228.889 19.1726 228.889 18.2113C228.889 17.7589 228.778 17.4197 228.722 17.3066L228.277 17.4196V17.3066ZM225.609 15.1577C225.609 16.0625 226.22 16.7411 227.277 16.7411C228.277 16.7411 228.889 16.0625 228.889 15.2143C228.889 14.4226 228.389 13.6309 227.221 13.5744C226.276 13.5744 225.609 14.1964 225.609 15.1012V15.1577ZM226.054 15.1577C226.054 14.4792 226.721 14.1964 227.277 14.1964C227.999 14.1964 228.5 14.5923 228.5 15.1577C228.5 15.7232 227.999 16.1191 227.277 16.1191C226.665 16.1191 226.054 15.8363 226.054 15.1012V15.1577ZM228.889 12.8393V12.2738H226.999C226.888 12.2738 226.776 12.2738 226.721 12.2173C226.443 12.1042 226.165 11.878 226.165 11.4821C226.165 11.0298 226.554 10.8036 227.054 10.8036H228.944V10.2381H226.999C226.888 10.2381 226.776 10.2381 226.721 10.1815C226.443 10.0685 226.221 9.84226 226.221 9.50298C226.221 9.05059 226.61 8.82441 227.221 8.82441H229V8.25893H227.11C225.998 8.25893 225.72 8.88095 225.72 9.33333C225.72 9.61607 225.776 9.84227 225.943 10.0685C226.054 10.1816 226.165 10.3512 226.332 10.4077C225.943 10.5208 225.72 10.8601 225.72 11.3125C225.72 11.8214 225.998 12.1607 226.276 12.3304H225.776V12.8393C226.054 12.8393 226.332 12.8393 226.61 12.8393H228.944H228.889ZM220.606 21.4345C220.773 21.3214 220.884 21.2083 220.995 21.0952C221.106 20.9822 221.162 20.756 221.162 20.5298V14.4226H215.047V20.5298C215.047 20.9256 215.214 21.2649 215.547 21.4345H211.989C212.156 21.3214 212.267 21.2083 212.379 21.0952C212.49 20.9822 212.49 20.756 212.49 20.5298V8.76786C212.49 8.31548 212.323 8.03274 211.989 7.86309H215.547C215.214 8.03274 215.047 8.31548 215.047 8.76786V13.4613H221.162V8.76786C221.162 8.31548 220.995 8.03274 220.606 7.86309H224.164C223.775 8.03274 223.608 8.31548 223.608 8.76786V20.5298C223.608 20.756 223.663 20.9256 223.775 21.0952C223.886 21.2083 223.997 21.378 224.164 21.4345H220.606ZM209.21 17.4762C209.21 18.0982 209.099 18.6637 208.821 19.1726C208.598 19.6816 208.209 20.1339 207.82 20.4732C207.375 20.8691 206.931 21.1518 206.375 21.3214C205.819 21.5476 205.263 21.6042 204.652 21.6042C204.207 21.6042 203.818 21.5476 203.429 21.4911C203.039 21.4345 202.706 21.3214 202.372 21.2649C202.039 21.1518 201.761 21.0387 201.539 20.9256C201.316 20.8125 201.094 20.6994 200.927 20.6429L200.816 17.25C200.927 17.5893 201.038 17.9851 201.261 18.381C201.427 18.7768 201.705 19.1161 201.983 19.4554C202.261 19.7946 202.65 20.0208 203.039 20.247C203.429 20.4732 203.873 20.5863 204.429 20.5863C204.929 20.5863 205.319 20.5298 205.652 20.3601C205.986 20.1905 206.264 20.0208 206.43 19.7381C206.597 19.5119 206.764 19.2292 206.82 18.9464C206.875 18.6637 206.931 18.381 206.931 18.1548C206.931 17.7024 206.82 17.3065 206.653 17.0238C206.43 16.7411 206.208 16.4583 205.875 16.2887C205.541 16.0625 205.152 15.8929 204.763 15.7232C204.374 15.5536 203.929 15.3274 203.484 15.1012C202.595 14.5923 201.928 14.0833 201.539 13.4613C201.149 12.8958 200.927 12.2173 200.927 11.4821C200.927 10.8036 201.094 10.2381 201.372 9.72917C201.65 9.27678 201.983 8.88095 202.428 8.54167C202.873 8.25893 203.317 8.03274 203.818 7.86309C204.318 7.75 204.818 7.6369 205.207 7.6369C205.374 7.6369 205.597 7.6369 205.819 7.69345C206.041 7.69345 206.319 7.75 206.542 7.80655C206.82 7.86309 207.098 7.91964 207.375 8.03274C207.653 8.14583 207.931 8.25893 208.154 8.42857L208.265 11.369C208.209 11.0863 208.098 10.8036 207.876 10.5208C207.709 10.2381 207.487 9.95536 207.209 9.67262C206.931 9.38988 206.597 9.16369 206.264 8.99405C205.875 8.8244 205.485 8.71131 204.985 8.71131C204.596 8.71131 204.262 8.76786 204.04 8.88095C203.762 8.99405 203.595 9.16369 203.429 9.33333C203.262 9.50297 203.151 9.72916 203.039 9.95535C202.984 10.1815 202.928 10.4077 202.928 10.6339C202.928 10.9167 202.984 11.1994 203.095 11.4256C203.206 11.6518 203.373 11.8214 203.595 12.0476C203.818 12.2173 204.096 12.4435 204.429 12.6131C204.763 12.7827 205.152 13.0089 205.597 13.1786C206.041 13.4048 206.486 13.631 206.931 13.8006C207.375 14.0268 207.765 14.3095 208.098 14.5923C208.432 14.875 208.71 15.2708 208.932 15.7232C209.154 16.1756 209.266 16.7411 209.266 17.4196L209.21 17.4762ZM194.534 21.4345C194.701 21.3214 194.812 21.2083 194.923 21.0952C195.034 20.9822 195.034 20.756 195.034 20.5298V8.76786C195.034 8.31548 194.868 8.03274 194.534 7.86309H198.092C197.758 8.03274 197.592 8.31548 197.592 8.76786V20.5298C197.592 20.9256 197.758 21.2649 198.092 21.4345H194.534ZM191.477 7.86309C191.31 7.91964 191.199 8.03274 191.088 8.20238C190.976 8.37202 190.921 8.54167 190.921 8.76786V22C189.198 19.9077 187.585 18.0417 186.196 16.3452C185.584 15.6667 185.028 14.9315 184.472 14.253C183.916 13.5744 183.416 12.9524 182.971 12.4435C182.527 11.878 182.193 11.4821 181.915 11.1429C181.637 10.8036 181.526 10.6339 181.526 10.5774V20.5863C181.526 20.8125 181.582 20.9821 181.693 21.1518C181.804 21.2649 181.915 21.4345 182.082 21.4911H179.914C180.081 21.378 180.192 21.2649 180.303 21.1518C180.414 21.0387 180.47 20.8125 180.47 20.5863V9.95535C180.47 9.72916 180.47 9.61607 180.47 9.50298C180.47 9.38988 180.47 9.27679 180.414 9.22024C180.414 9.16369 180.359 9.05059 180.303 8.99405C180.248 8.9375 180.192 8.8244 180.081 8.71131C179.97 8.59821 179.858 8.48512 179.692 8.31547C179.58 8.20238 179.358 8.03274 179.191 7.91964H182.582L189.809 16.6845V8.82441C189.809 8.37202 189.642 8.08929 189.309 7.91964H191.477V7.86309ZM173.577 11.3125C173.577 11.0863 173.521 10.8036 173.466 10.5208C173.41 10.2381 173.243 9.95536 173.076 9.67262C172.91 9.38988 172.632 9.22024 172.298 9.05059C171.965 8.88095 171.575 8.76786 171.075 8.76786C170.908 8.76786 170.797 8.76786 170.63 8.76786C170.519 8.76786 170.352 8.76786 170.241 8.76786C170.13 8.76786 169.963 8.76786 169.908 8.76786V13.9702C170.019 13.9702 170.13 13.9702 170.241 13.9702C170.352 13.9702 170.408 13.9702 170.519 13.9702C170.63 13.9702 170.686 13.9702 170.797 13.9702C171.131 13.9702 171.464 13.9137 171.798 13.8006C172.131 13.6875 172.409 13.5179 172.687 13.3482C172.965 13.122 173.132 12.8393 173.299 12.5C173.466 12.1607 173.521 11.7083 173.521 11.1994L173.577 11.3125ZM176.801 21.4345C176.412 21.4345 176.078 21.378 175.8 21.1518C175.522 20.9256 175.244 20.756 175.078 20.4732C174.633 19.8512 174.188 19.1726 173.799 18.4941C173.354 17.8155 173.021 17.1935 172.632 16.628C172.52 16.4018 172.354 16.2321 172.243 16.006C172.131 15.7798 171.965 15.6101 171.853 15.497C171.742 15.3274 171.575 15.2143 171.409 15.1012C171.242 14.9881 171.02 14.9316 170.853 14.9316C170.797 14.9316 170.686 14.9316 170.63 14.9316C170.519 14.9316 170.464 14.9316 170.352 14.9316C170.241 14.9316 170.13 14.9316 170.019 14.9316V20.3601C170.019 20.5863 170.075 20.756 170.186 20.9256C170.297 21.0387 170.408 21.2083 170.575 21.2649H167.017C167.184 21.1518 167.295 21.0387 167.406 20.9256C167.517 20.8125 167.517 20.5863 167.517 20.3601V8.59822C167.517 8.14583 167.351 7.86309 167.017 7.69345H171.242C172.243 7.69345 173.076 7.80655 173.743 8.03274C174.411 8.25893 174.911 8.54167 175.244 8.88095C175.634 9.22024 175.856 9.55952 176.023 9.95535C176.134 10.3512 176.245 10.6905 176.245 11.0298C176.245 11.5952 176.134 12.0476 175.911 12.4435C175.689 12.8393 175.411 13.1786 175.078 13.4613C174.744 13.744 174.411 13.9702 174.021 14.0833C173.632 14.253 173.243 14.3095 172.91 14.3661C173.243 14.4226 173.521 14.4792 173.799 14.5923C174.021 14.7054 174.244 14.8185 174.411 14.9881C174.577 15.1577 174.744 15.2708 174.855 15.4405C174.966 15.6101 175.078 15.7232 175.133 15.8363C175.578 16.5714 176.023 17.1935 176.412 17.8155C176.579 18.0982 176.745 18.3244 176.912 18.6071C177.079 18.8899 177.246 19.1161 177.412 19.3423C177.579 19.5685 177.69 19.7947 177.857 19.9643C177.968 20.1339 178.079 20.3036 178.191 20.3601C178.302 20.4732 178.413 20.5863 178.524 20.6994C178.635 20.8125 178.802 20.869 178.913 20.9256C179.08 20.9821 179.247 21.0952 179.414 21.1518L176.857 21.2083L176.801 21.4345ZM164.071 7.86309C163.904 7.91964 163.793 8.03274 163.682 8.20238C163.57 8.37202 163.515 8.54167 163.515 8.76786L163.459 16.9107C163.459 17.7589 163.348 18.494 163.126 19.0595C162.903 19.625 162.57 20.1339 162.181 20.5298C161.792 20.9256 161.291 21.2083 160.735 21.378C160.179 21.5476 159.568 21.6607 158.901 21.6607C158.345 21.6607 157.734 21.6042 157.122 21.4345C156.511 21.2649 155.955 21.0387 155.454 20.6994C154.954 20.3601 154.509 19.9077 154.176 19.2857C153.842 18.7202 153.675 17.9851 153.675 17.0804V8.76786C153.675 8.54167 153.62 8.37202 153.453 8.20238C153.342 8.03274 153.175 7.91964 153.008 7.86309H156.788C156.622 7.91964 156.511 8.03274 156.344 8.20238C156.233 8.37202 156.177 8.54167 156.177 8.76786V17.1369C156.177 17.4762 156.233 17.872 156.288 18.2679C156.344 18.6637 156.511 19.0595 156.733 19.3423C156.955 19.6816 157.233 19.9643 157.622 20.1905C158.011 20.4167 158.512 20.5298 159.179 20.5298C159.79 20.5298 160.235 20.4167 160.68 20.247C161.069 20.0774 161.402 19.7946 161.68 19.5119C161.958 19.1726 162.125 18.8333 162.236 18.381C162.348 17.9286 162.403 17.4762 162.403 17.0238L162.348 8.82441C162.348 8.59822 162.292 8.42857 162.181 8.25893C162.07 8.08929 161.958 7.97619 161.792 7.91964H164.071V7.86309ZM150.785 5.77083C150.618 5.43155 150.396 5.20536 150.062 4.97917C149.729 4.75298 149.284 4.63988 148.672 4.63988C148.45 4.63988 148.061 4.63988 147.505 4.63988C146.949 4.63988 146.393 4.63988 145.782 4.58333C145.115 4.58333 144.336 4.52679 143.558 4.52679V10.6905H147.672C147.894 10.6905 148.061 10.6339 148.283 10.4643C148.45 10.2946 148.617 10.125 148.672 10.0119V12.8393C148.617 12.6696 148.45 12.4434 148.283 12.3304C148.116 12.1607 147.894 12.1042 147.672 12.1042H143.558V20.3036C143.558 20.6429 143.614 20.8691 143.78 21.0387C143.892 21.2083 144.114 21.378 144.336 21.4911H139.444C139.667 21.3214 139.889 21.2083 140 21.0387C140.167 20.8691 140.223 20.6429 140.223 20.3036V4.47024C140.223 4.1875 140.167 3.90476 140 3.73512C139.834 3.56548 139.667 3.39583 139.444 3.28274H150.618L150.729 5.88393L150.785 5.77083ZM132.662 21.378C132.829 21.2649 132.94 21.1518 133.052 21.0387C133.163 20.9256 133.163 20.6994 133.163 20.4732V10.4643C133.163 10.4077 133.163 10.3512 133.163 10.2946C133.163 10.2381 133.163 10.1815 133.163 10.1815C133.163 10.125 133.163 10.0685 133.163 10.0685L132.996 10.5208L128.271 21.7173L123.546 10.8601L123.434 10.2946V20.5863C123.434 20.8125 123.49 20.9821 123.601 21.1518C123.712 21.2649 123.824 21.4345 123.99 21.4911H121.822C121.989 21.378 122.1 21.2649 122.211 21.1518C122.323 21.0387 122.378 20.8125 122.378 20.5863V8.82441C122.378 8.65476 122.323 8.48512 122.156 8.31547C122.045 8.14583 121.878 8.03274 121.711 7.91964H125.158L129.049 17.0804L132.829 7.91964H136.165C135.831 8.08929 135.664 8.37202 135.664 8.82441V20.5863C135.664 20.8125 135.72 20.9821 135.775 21.1518C135.887 21.2649 135.998 21.4345 136.165 21.4911H132.662V21.378ZM116.43 14.7619C116.43 13.8006 116.319 12.9524 116.097 12.2173C115.874 11.4821 115.541 10.8036 115.152 10.2946C114.762 9.78571 114.262 9.38988 113.706 9.10714C113.15 8.8244 112.539 8.71131 111.927 8.71131C111.26 8.71131 110.649 8.8244 110.148 9.10714C109.593 9.33333 109.092 9.72917 108.703 10.2381C108.314 10.747 107.98 11.3125 107.758 11.9911C107.536 12.6696 107.425 13.4613 107.425 14.3661C107.425 15.4405 107.536 16.3452 107.814 17.1369C108.092 17.9286 108.425 18.5506 108.87 19.0595C109.315 19.5685 109.815 19.9643 110.371 20.1905C110.927 20.4167 111.483 20.5863 112.039 20.5863C112.706 20.5863 113.261 20.4732 113.817 20.1905C114.373 19.9643 114.818 19.5685 115.207 19.0595C115.596 18.5506 115.93 17.9851 116.152 17.25C116.375 16.5714 116.486 15.7232 116.486 14.8184L116.43 14.7619ZM119.21 14.6488C119.21 15.8363 118.932 16.8542 118.487 17.7024C118.042 18.5506 117.486 19.2857 116.764 19.8512C116.041 20.4167 115.263 20.8691 114.429 21.1518C113.539 21.4345 112.65 21.5476 111.761 21.5476C110.76 21.5476 109.871 21.3214 108.981 20.9821C108.092 20.6429 107.369 20.1339 106.702 19.5119C106.035 18.8899 105.534 18.1548 105.145 17.3066C104.756 16.4583 104.589 15.497 104.589 14.4792C104.589 13.631 104.756 12.7827 105.145 11.9345C105.479 11.0863 105.979 10.3512 106.591 9.72917C107.202 9.10714 107.98 8.54167 108.925 8.20238C109.87 7.80655 110.871 7.6369 112.094 7.6369C112.928 7.6369 113.762 7.80655 114.596 8.08928C115.429 8.37202 116.208 8.82441 116.875 9.44643C117.542 10.0685 118.098 10.8036 118.543 11.6518C118.987 12.5 119.154 13.5179 119.154 14.6488H119.21ZM103.7 9.78571C103.589 9.61607 103.478 9.44643 103.366 9.27678C103.2 9.10714 103.033 8.99405 102.811 8.99405C102.477 8.99405 102.088 8.9375 101.754 8.9375C101.421 8.9375 101.087 8.88095 100.698 8.88095C100.309 8.88095 99.9755 8.88095 99.5863 8.88095V20.5298C99.5863 20.756 99.6419 20.9256 99.7531 21.0952C99.8643 21.2083 99.9755 21.378 100.142 21.4345H96.6401C96.8068 21.3214 96.918 21.2083 97.0292 21.0952C97.1404 20.9822 97.196 20.756 97.196 20.5298V8.88095C96.8068 8.88095 96.4733 8.88095 96.0842 8.88095C95.695 8.88095 95.3615 8.9375 95.0835 8.9375C94.75 8.9375 94.4165 8.99405 94.0829 8.99405C93.8606 8.99405 93.6382 9.10714 93.4714 9.27678C93.3047 9.44643 93.1935 9.61607 93.0823 9.78571V7.86309H103.811V9.78571H103.7ZM91.7481 17.4196C91.7481 18.0417 91.637 18.6071 91.359 19.1161C91.1366 19.625 90.7475 20.0774 90.3584 20.4167C89.9137 20.8125 89.4689 21.0953 88.913 21.2649C88.3571 21.4911 87.8012 21.5476 87.1898 21.5476C86.745 21.5476 86.3559 21.4911 85.9668 21.4345C85.5776 21.378 85.2441 21.2649 84.9106 21.2083C84.577 21.0952 84.2991 20.9821 84.0767 20.8691C83.8543 20.756 83.632 20.6429 83.4652 20.5863L83.354 17.1935C83.4652 17.5327 83.5764 17.9286 83.7988 18.3244C83.9655 18.7202 84.2435 19.0595 84.5214 19.3988C84.7994 19.7381 85.1885 19.9643 85.5776 20.1905C85.9668 20.4167 86.4115 20.5298 86.9674 20.5298C87.4677 20.5298 87.8568 20.4732 88.1904 20.3036C88.5239 20.1339 88.8019 19.9643 88.9686 19.6815C89.1354 19.4554 89.3022 19.1726 89.3578 18.8899C89.4134 18.6072 89.4689 18.3244 89.4689 18.0982C89.4689 17.6458 89.3578 17.25 89.191 16.9673C88.9686 16.6845 88.7463 16.4018 88.4127 16.2322C88.0792 16.006 87.6901 15.8363 87.3009 15.6667C86.9118 15.497 86.4671 15.2708 86.0224 15.0446C85.1329 14.5357 84.4658 14.0268 84.0767 13.4048C83.6876 12.8393 83.4652 12.1607 83.4652 11.4256C83.4652 10.747 83.632 10.1815 83.9099 9.67262C84.1879 9.22024 84.5214 8.8244 84.9661 8.48512C85.4109 8.20238 85.8556 7.97619 86.3559 7.80655C86.8562 7.69345 87.3565 7.58036 87.7457 7.58036C87.9124 7.58036 88.1348 7.58036 88.3571 7.6369C88.5795 7.6369 88.8574 7.69345 89.0798 7.75C89.3578 7.80655 89.6357 7.86309 89.9137 7.97619C90.1916 8.08929 90.4696 8.20238 90.6919 8.37202L90.8031 11.3125C90.7475 11.0298 90.6363 10.747 90.414 10.4643C90.2472 10.1815 90.0248 9.89881 89.7469 9.61607C89.4689 9.33333 89.1354 9.10714 88.8019 8.9375C88.4127 8.76786 88.0236 8.65476 87.5233 8.65476C87.1342 8.65476 86.8006 8.71131 86.5783 8.82441C86.3003 8.9375 86.1335 9.10714 85.9668 9.27678C85.8 9.44643 85.6888 9.67262 85.5776 9.89881C85.522 10.125 85.4665 10.3512 85.4665 10.5774C85.4665 10.8601 85.5221 11.1429 85.6332 11.369C85.7444 11.5952 85.9112 11.7649 86.1335 11.9911C86.3559 12.1607 86.6338 12.3869 86.9674 12.5565C87.3009 12.7262 87.6901 12.9524 88.1348 13.122C88.5795 13.3482 89.0242 13.5744 89.4689 13.744C89.9137 13.9702 90.3028 14.253 90.6363 14.5357C90.9699 14.8185 91.2478 15.2143 91.4702 15.6667C91.6925 16.1191 91.8037 16.6845 91.8037 17.3631L91.7481 17.4196ZM80.9081 7.86309C80.7413 7.91964 80.6301 8.03274 80.5189 8.20238C80.4078 8.37202 80.3522 8.54167 80.3522 8.76786L80.2966 16.9107C80.2966 17.7589 80.1854 18.494 79.963 19.0595C79.7407 19.625 79.4071 20.1339 79.018 20.5298C78.6289 20.9256 78.1286 21.2083 77.5727 21.378C77.0168 21.5476 76.4053 21.6607 75.7382 21.6607C75.1823 21.6607 74.5708 21.6042 73.9593 21.4345C73.3478 21.2649 72.7919 21.0387 72.2916 20.6994C71.7913 20.3601 71.3466 19.9077 71.013 19.2857C70.6795 18.7202 70.5127 17.9851 70.5127 17.0804V8.76786C70.5127 8.54167 70.4571 8.37202 70.2904 8.20238C70.1792 8.03274 70.0124 7.91964 69.8456 7.86309H73.6258C73.459 7.91964 73.3478 8.03274 73.1811 8.20238C73.0699 8.37202 73.0143 8.54167 73.0143 8.76786V17.1369C73.0143 17.4762 73.0699 17.872 73.1255 18.2679C73.1811 18.6637 73.3478 19.0595 73.5702 19.3423C73.7925 19.6816 74.0705 19.9643 74.4596 20.1905C74.8488 20.4167 75.3491 20.5298 76.0161 20.5298C76.6276 20.5298 77.0724 20.4167 77.5171 20.247C77.9062 20.0774 78.2398 19.7946 78.5177 19.5119C78.7957 19.1726 78.9624 18.8333 79.0736 18.381C79.1848 17.9286 79.2404 17.4762 79.2404 17.0238L79.1848 8.82441C79.1848 8.59822 79.1292 8.42857 79.018 8.25893C78.9068 8.08929 78.7956 7.97619 78.6289 7.91964H80.9081V7.86309Z" fill="#212121"/>
<defs>
<linearGradient id="paint0_linear_786_1085" x1="23.0215" y1="22.0082" x2="23.0215" y2="2.95645" gradientUnits="userSpaceOnUse">
<stop stop-color="#333436"/>
<stop offset="0.341176" stop-color="#7E8182"/>
<stop offset="0.560784" stop-color="#D2D5D7"/>
<stop offset="0.819608" stop-color="#7E8182"/>
<stop offset="0.980392" stop-color="#333436"/>
<stop offset="1" stop-color="#333436"/>
</linearGradient>
<linearGradient id="paint1_linear_786_1085" x1="22.9861" y1="23.675" x2="22.9861" y2="3.52138" gradientUnits="userSpaceOnUse">
<stop stop-color="#333436"/>
<stop offset="0.25098" stop-color="#888C8D"/>
<stop offset="0.560784" stop-color="#E8EBEC"/>
<stop offset="0.819608" stop-color="#888C8D"/>
<stop offset="0.980392" stop-color="#333436"/>
<stop offset="1" stop-color="#333436"/>
</linearGradient>
<linearGradient id="paint2_linear_786_1085" x1="4.025" y1="13.4582" x2="42.0393" y2="13.4582" gradientUnits="userSpaceOnUse">
<stop stop-color="#999998"/>
<stop offset="0.129412" stop-color="#999998"/>
<stop offset="0.431373" stop-color="#E5363B"/>
<stop offset="1" stop-color="#E5363B"/>
</linearGradient>
<linearGradient id="paint3_linear_786_1085" x1="23" y1="4" x2="23" y2="22" gradientUnits="userSpaceOnUse">
<stop stop-color="white"/>
<stop offset="1" stop-color="white" stop-opacity="0"/>
</linearGradient>
</defs>
</svg>
