<svg width="104" height="26" viewBox="0 0 104 26" fill="none" xmlns="http://www.w3.org/2000/svg">
<circle cx="12.5769" cy="13.4226" r="12.5769" fill="#FD6037"/>
<path fill-rule="evenodd" clip-rule="evenodd" d="M12.4106 3.41577L20.5801 7.62255V18.7863L12.4203 23.4158L4.58008 19.0965V7.62877L12.4106 3.41577ZM12.422 4.5506L11.4856 5.0544L18.3628 8.75892V17.8873L14.8352 19.6361V15.4717L10.1486 12.8982V19.6361L6.62102 17.8873V8.73619L10.1486 7.12194V11.7514L15.8935 14.9059V17.9922L17.3045 17.2926V14.1433L15.1465 13.2381L14.591 13.0022L14.8352 12.5004V8.00002L10.4256 5.6247L5.63835 8.20035V18.5317L12.4123 22.2635L19.5218 18.2299V8.20657L12.422 4.5506ZM15.8935 8.57008V12.4676L17.3045 13.0595V9.33015L15.8935 8.57008ZM7.67929 9.35288V17.2926L9.09031 17.9922V8.70717L7.67929 9.35288Z" fill="white"/>
<path d="M42.6716 7.2702V19.7836H40.6069V14.2134H34.2274V19.7836H32.1538V7.2702H34.2274V12.7448H40.6069V7.2702H42.6716Z" fill="#FD6037"/>
<path d="M47.1852 10.9199V19.7836H45.2881V10.9199H47.1852ZM47.5028 8.24346C47.5028 8.41147 47.4675 8.57078 47.3969 8.7214C47.3322 8.87203 47.241 9.00527 47.1234 9.12114C47.0057 9.23121 46.8675 9.321 46.7087 9.39052C46.5557 9.45425 46.391 9.48611 46.2146 9.48611C46.044 9.48611 45.8822 9.45425 45.7293 9.39052C45.5822 9.321 45.4528 9.23121 45.341 9.12114C45.2293 9.00527 45.1381 8.87203 45.0675 8.7214C45.0028 8.57078 44.9704 8.41147 44.9704 8.24346C44.9704 8.06967 45.0028 7.90746 45.0675 7.75683C45.1381 7.60621 45.2293 7.47586 45.341 7.36579C45.4528 7.24992 45.5822 7.16013 45.7293 7.0964C45.8822 7.02688 46.044 6.99213 46.2146 6.99213C46.391 6.99213 46.5557 7.02688 46.7087 7.0964C46.8675 7.16013 47.0057 7.24992 47.1234 7.36579C47.241 7.47586 47.3322 7.60621 47.3969 7.75683C47.4675 7.90746 47.5028 8.06967 47.5028 8.24346Z" fill="#FD6037"/>
<path d="M51.3423 12.0931C51.5365 11.8961 51.7365 11.7194 51.9423 11.563C52.1541 11.4008 52.3776 11.2617 52.6129 11.1459C52.8482 11.03 53.0982 10.9402 53.363 10.8765C53.6277 10.8128 53.9159 10.7809 54.2277 10.7809C54.7218 10.7809 55.1542 10.862 55.5247 11.0242C55.9012 11.1864 56.2159 11.4153 56.4689 11.7107C56.7277 12.0062 56.9218 12.3624 57.0512 12.7796C57.1806 13.1909 57.2454 13.6456 57.2454 14.1439V19.7836H55.3571V14.1439C55.3571 13.5472 55.2159 13.0837 54.9336 12.7535C54.6571 12.4233 54.2336 12.2582 53.663 12.2582C53.2394 12.2582 52.8453 12.3538 52.4806 12.5449C52.1218 12.7361 51.7835 12.9968 51.4659 13.327V19.7836H49.5688V10.9199H50.7159C50.9747 10.9199 51.1394 11.0387 51.21 11.2762L51.3423 12.0931Z" fill="#FD6037"/>
<path d="M64.8345 12.5276C64.7875 12.6087 64.7345 12.6666 64.6757 12.7014C64.6169 12.7361 64.5433 12.7535 64.4551 12.7535C64.3551 12.7535 64.2463 12.7245 64.1286 12.6666C64.011 12.6029 63.8727 12.5333 63.7139 12.458C63.5551 12.3827 63.3668 12.3161 63.1492 12.2582C62.9374 12.1944 62.6874 12.1626 62.3992 12.1626C62.1639 12.1626 61.9492 12.1915 61.7551 12.2495C61.5668 12.3016 61.4051 12.3798 61.2698 12.4841C61.1403 12.5826 61.0403 12.7014 60.9698 12.8404C60.8992 12.9736 60.8639 13.1185 60.8639 13.2749C60.8639 13.4834 60.9286 13.6572 61.058 13.7963C61.1874 13.9353 61.358 14.057 61.5698 14.1612C61.7815 14.2597 62.0227 14.3495 62.2933 14.4306C62.5639 14.5117 62.8404 14.5986 63.1227 14.6913C63.4051 14.784 63.6816 14.8912 63.9522 15.0128C64.2227 15.1345 64.4639 15.2851 64.6757 15.4647C64.8875 15.6385 65.058 15.8529 65.1875 16.1078C65.3169 16.3569 65.3816 16.661 65.3816 17.0202C65.3816 17.4373 65.3051 17.8226 65.1522 18.176C64.9992 18.5293 64.7757 18.8364 64.4816 19.0971C64.1874 19.3578 63.8198 19.5605 63.3786 19.7054C62.9433 19.8502 62.4433 19.9226 61.8786 19.9226C61.5668 19.9226 61.2639 19.8936 60.9698 19.8357C60.6815 19.7836 60.405 19.7112 60.1403 19.6185C59.8815 19.52 59.6374 19.4041 59.408 19.2709C59.1844 19.1376 58.9844 18.9928 58.808 18.8364L59.2491 18.1238C59.3021 18.0369 59.3668 17.9703 59.4433 17.9239C59.5256 17.8718 59.6256 17.8457 59.7433 17.8457C59.8668 17.8457 59.9874 17.8863 60.105 17.9674C60.2286 18.0427 60.3698 18.1267 60.5286 18.2194C60.6933 18.3121 60.8903 18.399 61.1198 18.4801C61.3492 18.5554 61.6345 18.5931 61.9757 18.5931C62.258 18.5931 62.5021 18.5612 62.708 18.4975C62.9139 18.428 63.0845 18.3353 63.2198 18.2194C63.3551 18.1035 63.4551 17.9732 63.5198 17.8284C63.5845 17.6777 63.6169 17.5184 63.6169 17.3504C63.6169 17.1245 63.5521 16.9391 63.4227 16.7943C63.2933 16.6494 63.1198 16.5249 62.9021 16.4206C62.6904 16.3163 62.4462 16.2236 62.1698 16.1425C61.8992 16.0614 61.6227 15.9745 61.3404 15.8818C61.058 15.7891 60.7786 15.682 60.5021 15.5603C60.2315 15.4387 59.9874 15.2851 59.7697 15.0997C59.558 14.9086 59.3874 14.6797 59.258 14.4132C59.1286 14.141 59.0639 13.8108 59.0639 13.4226C59.0639 13.0692 59.1344 12.7332 59.2756 12.4146C59.4227 12.096 59.6344 11.815 59.9109 11.5717C60.1933 11.3284 60.5374 11.1372 60.9433 10.9981C61.3551 10.8533 61.8286 10.7809 62.3639 10.7809C62.9698 10.7809 63.5198 10.8765 64.0139 11.0677C64.508 11.2588 64.9227 11.5195 65.258 11.8497L64.8345 12.5276Z" fill="#FD6037"/>
<path d="M69.0615 11.9714C69.432 11.6122 69.8379 11.3255 70.2791 11.1111C70.7203 10.891 71.235 10.7809 71.8233 10.7809C72.3174 10.7809 72.7497 10.862 73.1203 11.0242C73.4968 11.1864 73.8115 11.4153 74.0645 11.7107C74.3233 12.0062 74.5174 12.3624 74.6468 12.7796C74.7762 13.1909 74.8409 13.6456 74.8409 14.1439V19.7836H72.9527V14.1439C72.9527 13.5472 72.8115 13.0837 72.5291 12.7535C72.2527 12.4233 71.8291 12.2582 71.2585 12.2582C70.835 12.2582 70.4409 12.3538 70.0762 12.5449C69.7173 12.7361 69.3791 12.9968 69.0615 13.327V19.7836H67.1644V6.92261H69.0615V11.9714Z" fill="#FD6037"/>
<path d="M79.033 10.9199V19.7836H77.1359V10.9199H79.033ZM79.3506 8.24346C79.3506 8.41147 79.3154 8.57078 79.2448 8.7214C79.1801 8.87203 79.0889 9.00527 78.9712 9.12114C78.8536 9.23121 78.7153 9.321 78.5565 9.39052C78.4036 9.45425 78.2389 9.48611 78.0624 9.48611C77.8918 9.48611 77.73 9.45425 77.5771 9.39052C77.43 9.321 77.3006 9.23121 77.1889 9.12114C77.0771 9.00527 76.9859 8.87203 76.9153 8.7214C76.8506 8.57078 76.8183 8.41147 76.8183 8.24346C76.8183 8.06967 76.8506 7.90746 76.9153 7.75683C76.9859 7.60621 77.0771 7.47586 77.1889 7.36579C77.3006 7.24992 77.43 7.16013 77.5771 7.0964C77.73 7.02688 77.8918 6.99213 78.0624 6.99213C78.2389 6.99213 78.4036 7.02688 78.5565 7.0964C78.7153 7.16013 78.8536 7.24992 78.9712 7.36579C79.0889 7.47586 79.1801 7.60621 79.2448 7.75683C79.3154 7.90746 79.3506 8.06967 79.3506 8.24346Z" fill="#FD6037"/>
<path d="M84.302 19.9226C83.5549 19.9226 82.9784 19.7169 82.5725 19.3056C82.1725 18.8885 81.9725 18.3034 81.9725 17.5503V12.3885H80.9843C80.8784 12.3885 80.7872 12.3567 80.7107 12.2929C80.6343 12.2234 80.596 12.122 80.596 11.9888V11.2328L82.0519 11.0242L82.4666 8.46071C82.496 8.36222 82.546 8.28402 82.6166 8.22608C82.6872 8.16236 82.7813 8.13049 82.899 8.13049H83.8696V11.0416H86.3667V12.3885H83.8696V17.4199C83.8696 17.7386 83.949 17.9819 84.1078 18.1499C84.2667 18.3179 84.4784 18.4019 84.7431 18.4019C84.8902 18.4019 85.0167 18.3845 85.1226 18.3497C85.2284 18.3092 85.3196 18.2686 85.3961 18.2281C85.4726 18.1817 85.5373 18.1412 85.5902 18.1064C85.649 18.0659 85.7049 18.0456 85.7579 18.0456C85.8637 18.0456 85.949 18.1035 86.0137 18.2194L86.5785 19.1318C86.2843 19.3867 85.9373 19.5837 85.5373 19.7227C85.1373 19.856 84.7255 19.9226 84.302 19.9226Z" fill="#FD6037"/>
<path d="M93.2356 12.5276C93.1886 12.6087 93.1356 12.6666 93.0768 12.7014C93.018 12.7361 92.9444 12.7535 92.8562 12.7535C92.7562 12.7535 92.6474 12.7245 92.5297 12.6666C92.4121 12.6029 92.2738 12.5333 92.115 12.458C91.9562 12.3827 91.768 12.3161 91.5503 12.2582C91.3385 12.1944 91.0885 12.1626 90.8003 12.1626C90.565 12.1626 90.3503 12.1915 90.1562 12.2495C89.9679 12.3016 89.8062 12.3798 89.6709 12.4841C89.5415 12.5826 89.4414 12.7014 89.3709 12.8404C89.3003 12.9736 89.265 13.1185 89.265 13.2749C89.265 13.4834 89.3297 13.6572 89.4591 13.7963C89.5885 13.9353 89.7591 14.057 89.9709 14.1612C90.1826 14.2597 90.4238 14.3495 90.6944 14.4306C90.965 14.5117 91.2415 14.5986 91.5238 14.6913C91.8062 14.784 92.0827 14.8912 92.3532 15.0128C92.6238 15.1345 92.865 15.2851 93.0768 15.4647C93.2886 15.6385 93.4591 15.8529 93.5886 16.1078C93.718 16.3569 93.7827 16.661 93.7827 17.0202C93.7827 17.4373 93.7062 17.8226 93.5533 18.176C93.4003 18.5293 93.1768 18.8364 92.8827 19.0971C92.5885 19.3578 92.2209 19.5605 91.7797 19.7054C91.3444 19.8502 90.8444 19.9226 90.2797 19.9226C89.9679 19.9226 89.665 19.8936 89.3709 19.8357C89.0826 19.7836 88.8061 19.7112 88.5414 19.6185C88.2826 19.52 88.0385 19.4041 87.8091 19.2709C87.5855 19.1376 87.3855 18.9928 87.2091 18.8364L87.6502 18.1238C87.7032 18.0369 87.7679 17.9703 87.8444 17.9239C87.9267 17.8718 88.0267 17.8457 88.1444 17.8457C88.2679 17.8457 88.3885 17.8863 88.5061 17.9674C88.6297 18.0427 88.7709 18.1267 88.9297 18.2194C89.0944 18.3121 89.2914 18.399 89.5209 18.4801C89.7503 18.5554 90.0356 18.5931 90.3768 18.5931C90.6591 18.5931 90.9032 18.5612 91.1091 18.4975C91.315 18.428 91.4856 18.3353 91.6209 18.2194C91.7562 18.1035 91.8562 17.9732 91.9209 17.8284C91.9856 17.6777 92.0179 17.5184 92.0179 17.3504C92.0179 17.1245 91.9532 16.9391 91.8238 16.7943C91.6944 16.6494 91.5209 16.5249 91.3032 16.4206C91.0915 16.3163 90.8474 16.2236 90.5709 16.1425C90.3003 16.0614 90.0238 15.9745 89.7415 15.8818C89.4591 15.7891 89.1797 15.682 88.9032 15.5603C88.6326 15.4387 88.3885 15.2851 88.1708 15.0997C87.9591 14.9086 87.7885 14.6797 87.6591 14.4132C87.5297 14.141 87.465 13.8108 87.465 13.4226C87.465 13.0692 87.5355 12.7332 87.6767 12.4146C87.8238 12.096 88.0355 11.815 88.312 11.5717C88.5944 11.3284 88.9385 11.1372 89.3444 10.9981C89.7562 10.8533 90.2297 10.7809 90.765 10.7809C91.3709 10.7809 91.9209 10.8765 92.415 11.0677C92.9091 11.2588 93.3238 11.5195 93.6591 11.8497L93.2356 12.5276Z" fill="#FD6037"/>
<path d="M103.154 10.9199V19.7836H102.007C101.754 19.7836 101.592 19.6648 101.521 19.4273L101.38 18.6018C101.192 18.7987 100.992 18.9783 100.78 19.1405C100.574 19.3027 100.354 19.4418 100.118 19.5576C99.8832 19.6735 99.6302 19.7633 99.3596 19.827C99.0949 19.8907 98.8096 19.9226 98.5037 19.9226C98.0096 19.9226 97.5743 19.8415 97.1978 19.6793C96.8214 19.5171 96.5037 19.2882 96.2449 18.9928C95.9919 18.6973 95.8008 18.344 95.6714 17.9326C95.5419 17.5155 95.4772 17.0579 95.4772 16.5596V10.9199H97.3743V16.5596C97.3743 17.1563 97.5126 17.6198 97.789 17.95C98.0714 18.2802 98.4979 18.4453 99.0685 18.4453C99.4861 18.4453 99.8744 18.3526 100.233 18.1673C100.598 17.9761 100.939 17.7154 101.257 17.3852V10.9199H103.154Z" fill="#FD6037"/>
</svg>
