<svg id='Instagram_24' width='24' height='24' viewBox='0 0 24 24' xmlns='http://www.w3.org/2000/svg' xmlns:xlink='http://www.w3.org/1999/xlink'><rect width='24' height='24' stroke='none' fill='#000000' opacity='0'/>


<g transform="matrix(0.5 0 0 0.5 12 12)" >
<g style="" >
<g transform="matrix(1 0 0 1 0 0)" >
<path style="stroke: none; stroke-width: 1; stroke-dasharray: none; stroke-linecap: butt; stroke-dashoffset: 0; stroke-linejoin: miter; stroke-miterlimit: 4; fill: rgb(133,133,204); fill-rule: nonzero; opacity: 1;" transform=" translate(-20, -20)" d="M 30.5 38.5 C 34.918 38.5 38.5 34.918 38.5 30.5 L 38.5 9.5 C 38.5 5.082 34.918 1.5 30.5 1.5 L 9.5 1.5 C 5.082 1.5 1.5 5.082 1.5 9.5 L 1.5 30.5 C 1.5 34.918 5.082 38.5 9.5 38.5 L 30.5 38.5 z" stroke-linecap="round" />
</g>
<g transform="matrix(1 0 0 1 0 0.25)" >
<path style="stroke: none; stroke-width: 1; stroke-dasharray: none; stroke-linecap: butt; stroke-dashoffset: 0; stroke-linejoin: miter; stroke-miterlimit: 4; fill: rgb(141,141,216); fill-rule: nonzero; opacity: 1;" transform=" translate(-20, -20.25)" d="M 3.4 4.331 C 2.217 5.726 1.5 7.528 1.5 9.5 L 1.5 30.5 C 1.5 34.918 5.082 38.5 9.5 38.5 L 30.5 38.5 C 34.918 38.5 38.5 34.918 38.5 30.5 L 38.5 9.5 C 38.5 8.997 38.448 8.508 38.359 8.031 C 32.135 4.22 24.832 2 17 2 C 12.229 2 7.657 2.832 3.4 4.331 z" stroke-linecap="round" />
</g>
<g transform="matrix(1 0 0 1 0 2.25)" >
<path style="stroke: none; stroke-width: 1; stroke-dasharray: none; stroke-linecap: butt; stroke-dashoffset: 0; stroke-linejoin: miter; stroke-miterlimit: 4; fill: rgb(189,130,244); fill-rule: nonzero; opacity: 1;" transform=" translate(-20, -22.25)" d="M 1.505 9.404 C 1.504 9.437 1.5 9.468 1.5 9.5 L 1.5 30.5 C 1.5 34.918 5.082 38.5 9.5 38.5 L 30.5 38.5 C 34.918 38.5 38.5 34.918 38.5 30.5 L 38.5 12.897 C 32.439 8.56 25.021 6 17 6 C 11.465 6 6.22 7.226 1.505 9.404 z" stroke-linecap="round" />
</g>
<g transform="matrix(1 0 0 1 0 4.25)" >
<path style="stroke: none; stroke-width: 1; stroke-dasharray: none; stroke-linecap: butt; stroke-dashoffset: 0; stroke-linejoin: miter; stroke-miterlimit: 4; fill: rgb(237,115,244); fill-rule: nonzero; opacity: 1;" transform=" translate(-20, -24.25)" d="M 1.5 13.88 L 1.5 30.5 C 1.5 34.918 5.082 38.5 9.5 38.5 L 30.5 38.5 C 34.918 38.5 38.5 34.918 38.5 30.5 L 38.5 17.981 C 32.724 13.013 25.217 10 17 10 C 11.394 10 6.124 11.414 1.5 13.88 z" stroke-linecap="round" />
</g>
<g transform="matrix(1 0 0 1 0 6.25)" >
<path style="stroke: none; stroke-width: 1; stroke-dasharray: none; stroke-linecap: butt; stroke-dashoffset: 0; stroke-linejoin: miter; stroke-miterlimit: 4; fill: rgb(249,125,205); fill-rule: nonzero; opacity: 1;" transform=" translate(-20, -26.25)" d="M 17 14 C 11.295 14 5.986000000000001 15.664 1.5 18.509 L 1.5 30.5 C 1.5 34.918 5.082 38.5 9.5 38.5 L 30.5 38.5 C 34.918 38.5 38.5 34.918 38.5 30.5 L 38.5 23.565 C 33.194 17.698 25.534 14 17 14 z" stroke-linecap="round" />
</g>
<g transform="matrix(1 0 0 1 0 8.25)" >
<path style="stroke: none; stroke-width: 1; stroke-dasharray: none; stroke-linecap: butt; stroke-dashoffset: 0; stroke-linejoin: miter; stroke-miterlimit: 4; fill: rgb(252,156,149); fill-rule: nonzero; opacity: 1;" transform=" translate(-20, -28.25)" d="M 17 18 C 11.139 18 5.763 20.033 1.5 23.411 L 1.5 30.5 C 1.5 34.918 5.082 38.5 9.5 38.5 L 30.5 38.5 C 34.918 38.5 38.5 34.918 38.5 30.5 L 38.5 30.262 C 34.143 22.925 26.152 18 17 18 z" stroke-linecap="round" />
</g>
<g transform="matrix(1 0 0 1 -0.93 10.25)" >
<path style="stroke: none; stroke-width: 1; stroke-dasharray: none; stroke-linecap: butt; stroke-dashoffset: 0; stroke-linejoin: miter; stroke-miterlimit: 4; fill: rgb(255,172,153); fill-rule: nonzero; opacity: 1;" transform=" translate(-19.07, -30.25)" d="M 17 22 C 10.855 22 5.34 24.651 1.5 28.859 L 1.5 30.5 C 1.5 34.918 5.082 38.5 9.5 38.5 L 30.5 38.5 C 32.965 38.5 35.168 37.383 36.636 35.63 C 33.648 27.674 25.999 22 17 22 z" stroke-linecap="round" />
</g>
<g transform="matrix(1 0 0 1 -2.17 12.25)" >
<path style="stroke: none; stroke-width: 1; stroke-dasharray: none; stroke-linecap: butt; stroke-dashoffset: 0; stroke-linejoin: miter; stroke-miterlimit: 4; fill: rgb(255,196,156); fill-rule: nonzero; opacity: 1;" transform=" translate(-17.83, -32.25)" d="M 30.5 38.5 C 31.457 38.5 32.37 38.323 33.221000000000004 38.015 C 31.087 31.065 24.649 26 17 26 C 10.814 26 5.4079999999999995 29.309 2.4339999999999993 34.248 C 3.778 36.777 6.437 38.5 9.5 38.5 L 30.5 38.5 z" stroke-linecap="round" />
</g>
<g transform="matrix(1 0 0 1 -2.75 14.25)" >
<path style="stroke: none; stroke-width: 1; stroke-dasharray: none; stroke-linecap: butt; stroke-dashoffset: 0; stroke-linejoin: miter; stroke-miterlimit: 4; fill: rgb(255,222,141); fill-rule: nonzero; opacity: 1;" transform=" translate(-17.25, -34.25)" d="M 17 30 C 11.863 30 7.427 32.984 5.316000000000001 37.309 C 6.535 38.06 7.964 38.5 9.5 38.5 L 29.183 38.5 C 27.35 33.542 22.595 30 17 30 z" stroke-linecap="round" />
</g>
<g transform="matrix(1 0 0 1 -3 16.25)" >
<path style="stroke: none; stroke-width: 1; stroke-dasharray: none; stroke-linecap: butt; stroke-dashoffset: 0; stroke-linejoin: miter; stroke-miterlimit: 4; fill: rgb(255,246,159); fill-rule: nonzero; opacity: 1;" transform=" translate(-17, -36.25)" d="M 17 34 C 13.681000000000001 34 10.807 35.813 9.247 38.487 C 9.332 38.49 9.415 38.5 9.5 38.5 L 24.759999999999998 38.5 C 23.203 35.818 20.324 34 17 34 z" stroke-linecap="round" />
</g>
<g transform="matrix(1 0 0 1 0 0)" >
<path style="stroke: none; stroke-width: 1; stroke-dasharray: none; stroke-linecap: butt; stroke-dashoffset: 0; stroke-linejoin: miter; stroke-miterlimit: 4; fill: rgb(139,117,161); fill-rule: nonzero; opacity: 1;" transform=" translate(-20, -20)" d="M 31 2 C 34.86 2 38 5.140000000000001 38 9 L 38 31 C 38 34.86 34.86 38 31 38 L 9 38 C 5.140000000000001 38 2 34.86 2 31 L 2 9 C 2 5.140000000000001 5.140000000000001 2 9 2 L 31 2 M 31 1 L 9 1 C 4.582 1 1 4.582 1 9 L 1 31 C 1 35.418 4.582 39 9 39 L 31 39 C 35.418 39 39 35.418 39 31 L 39 9 C 39 4.582 35.418 1 31 1 L 31 1 z" stroke-linecap="round" />
</g>
<g transform="matrix(1 0 0 1 7.5 -7.5)" >
<path style="stroke: none; stroke-width: 1; stroke-dasharray: none; stroke-linecap: butt; stroke-dashoffset: 0; stroke-linejoin: miter; stroke-miterlimit: 4; fill: rgb(255,255,255); fill-rule: nonzero; opacity: 1;" transform=" translate(-27.5, -12.5)" d="M 27.5 11 C 26.67157287525381 11 26 11.67157287525381 26 12.5 C 26 13.32842712474619 26.67157287525381 14 27.5 14 C 28.32842712474619 14 29 13.32842712474619 29 12.5 C 29 11.67157287525381 28.32842712474619 11 27.5 11 Z" stroke-linecap="round" />
</g>
<g transform="matrix(1 0 0 1 0 0)" >
<path style="stroke: rgb(255,255,255); stroke-width: 2; stroke-dasharray: none; stroke-linecap: butt; stroke-dashoffset: 0; stroke-linejoin: miter; stroke-miterlimit: 10; fill: none; fill-rule: nonzero; opacity: 1;" transform=" translate(-20, -20)" d="M 20 14 C 16.68629150101524 14 14 16.68629150101524 14 20 C 14 23.31370849898476 16.68629150101524 26 20 26 C 23.31370849898476 26 26 23.31370849898476 26 20 C 26 16.68629150101524 23.31370849898476 14 20 14 Z" stroke-linecap="round" />
</g>
<g transform="matrix(1 0 0 1 0 0)" >
<path style="stroke: rgb(255,255,255); stroke-width: 2; stroke-dasharray: none; stroke-linecap: butt; stroke-dashoffset: 0; stroke-linejoin: miter; stroke-miterlimit: 10; fill: none; fill-rule: nonzero; opacity: 1;" transform=" translate(-20, -20)" d="M 33 14.5 C 33 10.358 29.642 7 25.5 7 C 23.323999999999998 7 16.676000000000002 7 14.5 7 C 10.358 7 7 10.358 7 14.5 C 7 16.676000000000002 7 23.323999999999998 7 25.5 C 7 29.642 10.358 33 14.5 33 C 16.676000000000002 33 23.323999999999998 33 25.5 33 C 29.642 33 33 29.642 33 25.5 C 33 23.324 33 16.676 33 14.5 z" stroke-linecap="round" />
</g>
</g>
</g>
</svg>