<svg id='Submit_Resume_24' width='24' height='24' viewBox='0 0 24 24' xmlns='http://www.w3.org/2000/svg' xmlns:xlink='http://www.w3.org/1999/xlink'><rect width='24' height='24' stroke='none' fill='#000000' opacity='0'/>


<g transform="matrix(0.31 0 0 0.31 12 12)" >
<g style="" >
<g transform="matrix(1 0 0 1 12 16.1)" >
<linearGradient id="SVGID_QNyXmetER9Pa8BpimsW7Ta_1" gradientUnits="userSpaceOnUse" gradientTransform="matrix(1 0 0 1 0 0)" x1="44" y1="4.191" x2="44" y2="53.767">
<stop offset="0%" style="stop-color:rgb(26,109,255);stop-opacity: 1"/>
<stop offset="100%" style="stop-color:rgb(200,34,255);stop-opacity: 1"/>
</linearGradient>
<path style="stroke: none; stroke-width: 1; stroke-dasharray: none; stroke-linecap: butt; stroke-dashoffset: 0; stroke-linejoin: miter; stroke-miterlimit: 4; fill: url(#SVGID_QNyXmetER9Pa8BpimsW7Ta_1); fill-rule: nonzero; opacity: 1;" transform=" translate(-44, -48.1)" d="M 46.7 46.7 L 41.900000000000006 42.300000000000004 L 40.60000000000001 43.800000000000004 L 45.400000000000006 48.1 L 40.60000000000001 52.4 L 41.900000000000006 53.9 L 46.7 49.699999999999996 C 47.1 49.3 47.400000000000006 48.8 47.400000000000006 48.199999999999996 C 47.4 47.6 47.2 47.1 46.7 46.7 z" stroke-linecap="round" />
</g>
<g transform="matrix(1 0 0 1 0 0)" >
<linearGradient id="SVGID_QNyXmetER9Pa8BpimsW7Tb_2" gradientUnits="userSpaceOnUse" gradientTransform="matrix(1 0 0 1 0 0)" x1="32" y1="4.191" x2="32" y2="53.767">
<stop offset="0%" style="stop-color:rgb(26,109,255);stop-opacity: 1"/>
<stop offset="100%" style="stop-color:rgb(200,34,255);stop-opacity: 1"/>
</linearGradient>
<path style="stroke: none; stroke-width: 1; stroke-dasharray: none; stroke-linecap: butt; stroke-dashoffset: 0; stroke-linejoin: miter; stroke-miterlimit: 4; fill: url(#SVGID_QNyXmetER9Pa8BpimsW7Tb_2); fill-rule: nonzero; opacity: 1;" transform=" translate(-32, -32)" d="M 45 38.1 L 45 15.8 C 45 15 44.7 14.200000000000001 44.1 13.700000000000001 L 37.300000000000004 6.900000000000001 C 36.7 6.3 36 6 35.2 6 L 13 6 C 11.3 6 10 7.3 10 9 L 10 44 L 10 45 L 10 49 C 10 50.7 11.3 52 13 52 L 34.8 52 C 36.3 55.5 39.9 58 44 58 C 49.5 58 54 53.5 54 48 C 54 42.8 50 38.6 45 38.1 z M 37 9.4 L 41.6 14 L 38 14 C 37.4 14 37 13.6 37 13 L 37 9.4 z M 13 50 C 12.4 50 12 49.6 12 49 L 12 47.8 C 12.3 47.9 12.6 48 13 48 L 34 48 C 34 48.7 34.1 49.4 34.2 50 L 13 50 z M 34.2 46 L 13 46 C 12.4 46 12 45.6 12 45 L 12 44 L 12 9 C 12 8.4 12.4 8 13 8 L 35 8 L 35 13 C 35 14.7 36.3 16 38 16 L 43 16 L 43 38.1 C 38.6 38.5 35.1 41.8 34.2 46 z M 44 56 C 39.6 56 36 52.4 36 48 C 36 43.6 39.6 40 44 40 C 48.4 40 52 43.6 52 48 C 52 52.4 48.4 56 44 56 z" stroke-linecap="round" />
</g>
<g transform="matrix(1 0 0 1 -9 -13.5)" >
<linearGradient id="SVGID_QNyXmetER9Pa8BpimsW7Tc_3" gradientUnits="userSpaceOnUse" gradientTransform="matrix(1 0 0 1 0 0)" x1="23" y1="4.191" x2="23" y2="53.767">
<stop offset="0%" style="stop-color:rgb(26,109,255);stop-opacity: 1"/>
<stop offset="100%" style="stop-color:rgb(200,34,255);stop-opacity: 1"/>
</linearGradient>
<path style="stroke: none; stroke-width: 1; stroke-dasharray: none; stroke-linecap: butt; stroke-dashoffset: 0; stroke-linejoin: miter; stroke-miterlimit: 4; fill: url(#SVGID_QNyXmetER9Pa8BpimsW7Tc_3); fill-rule: nonzero; opacity: 1;" transform=" translate(-23, -18.5)" d="M 30 25 C 30 22.837 28.988 20.805 27.31 19.489 C 27.737 18.753 28 17.91 28 17 L 28 15 C 28 12.243 25.757 10 23 10 C 20.243 10 18 12.243 18 15 L 18 17 C 18 17.91 18.263 18.753 18.689 19.489 C 17.012 20.805 16 22.838 16 25 L 16 27 L 30 27 L 30 25 z M 20 15 C 20 13.346 21.346 12 23 12 C 24.654 12 26 13.346 26 15 L 26 17 C 26 18.654 24.654 20 23 20 C 21.346 20 20 18.654 20 17 L 20 15 z M 18 25 C 18 23.415 18.763 21.928 20.02 20.991 C 20.855 21.616 21.879 22 23 22 C 24.121 22 25.146 21.616 25.98 20.991 C 27.237 21.928 28 23.414 28 25 L 18 25 z" stroke-linecap="round" />
</g>
<g transform="matrix(1 0 0 1 -10.5 -1)" >
<linearGradient id="SVGID_QNyXmetER9Pa8BpimsW7Td_4" gradientUnits="userSpaceOnUse" gradientTransform="matrix(1 0 0 1 -21.5 -31)" x1="21.5" y1="4.191" x2="21.5" y2="53.767">
<stop offset="0%" style="stop-color:rgb(26,109,255);stop-opacity: 1"/>
<stop offset="100%" style="stop-color:rgb(200,34,255);stop-opacity: 1"/>
</linearGradient>
<rect style="stroke: none; stroke-width: 1; stroke-dasharray: none; stroke-linecap: butt; stroke-dashoffset: 0; stroke-linejoin: miter; stroke-miterlimit: 4; fill: url(#SVGID_QNyXmetER9Pa8BpimsW7Td_4); fill-rule: nonzero; opacity: 1;" x="-5.5" y="-1" rx="0" ry="0" width="11" height="2" />
</g>
<g transform="matrix(1 0 0 1 -10.5 3)" >
<linearGradient id="SVGID_QNyXmetER9Pa8BpimsW7Te_5" gradientUnits="userSpaceOnUse" gradientTransform="matrix(1 0 0 1 -21.5 -35)" x1="21.5" y1="4.191" x2="21.5" y2="53.767">
<stop offset="0%" style="stop-color:rgb(26,109,255);stop-opacity: 1"/>
<stop offset="100%" style="stop-color:rgb(200,34,255);stop-opacity: 1"/>
</linearGradient>
<rect style="stroke: none; stroke-width: 1; stroke-dasharray: none; stroke-linecap: butt; stroke-dashoffset: 0; stroke-linejoin: miter; stroke-miterlimit: 4; fill: url(#SVGID_QNyXmetER9Pa8BpimsW7Te_5); fill-rule: nonzero; opacity: 1;" x="-5.5" y="-1" rx="0" ry="0" width="11" height="2" />
</g>
<g transform="matrix(1 0 0 1 2 -1)" >
<linearGradient id="SVGID_QNyXmetER9Pa8BpimsW7Tf_6" gradientUnits="userSpaceOnUse" gradientTransform="matrix(1 0 0 1 -34 -31)" x1="34" y1="4.191" x2="34" y2="53.767">
<stop offset="0%" style="stop-color:rgb(26,109,255);stop-opacity: 1"/>
<stop offset="100%" style="stop-color:rgb(200,34,255);stop-opacity: 1"/>
</linearGradient>
<rect style="stroke: none; stroke-width: 1; stroke-dasharray: none; stroke-linecap: butt; stroke-dashoffset: 0; stroke-linejoin: miter; stroke-miterlimit: 4; fill: url(#SVGID_QNyXmetER9Pa8BpimsW7Tf_6); fill-rule: nonzero; opacity: 1;" x="-5" y="-1" rx="0" ry="0" width="10" height="2" />
</g>
<g transform="matrix(1 0 0 1 2 3)" >
<linearGradient id="SVGID_QNyXmetER9Pa8BpimsW7Tg_7" gradientUnits="userSpaceOnUse" gradientTransform="matrix(1 0 0 1 -34 -35)" x1="34" y1="4.191" x2="34" y2="53.767">
<stop offset="0%" style="stop-color:rgb(26,109,255);stop-opacity: 1"/>
<stop offset="100%" style="stop-color:rgb(200,34,255);stop-opacity: 1"/>
</linearGradient>
<rect style="stroke: none; stroke-width: 1; stroke-dasharray: none; stroke-linecap: butt; stroke-dashoffset: 0; stroke-linejoin: miter; stroke-miterlimit: 4; fill: url(#SVGID_QNyXmetER9Pa8BpimsW7Tg_7); fill-rule: nonzero; opacity: 1;" x="-5" y="-1" rx="0" ry="0" width="10" height="2" />
</g>
<g transform="matrix(1 0 0 1 4 -12)" >
<linearGradient id="SVGID_QNyXmetER9Pa8BpimsW7Th_8" gradientUnits="userSpaceOnUse" gradientTransform="matrix(1 0 0 1 -36 -20)" x1="36" y1="4.191" x2="36" y2="53.767">
<stop offset="0%" style="stop-color:rgb(26,109,255);stop-opacity: 1"/>
<stop offset="100%" style="stop-color:rgb(200,34,255);stop-opacity: 1"/>
</linearGradient>
<rect style="stroke: none; stroke-width: 1; stroke-dasharray: none; stroke-linecap: butt; stroke-dashoffset: 0; stroke-linejoin: miter; stroke-miterlimit: 4; fill: url(#SVGID_QNyXmetER9Pa8BpimsW7Th_8); fill-rule: nonzero; opacity: 1;" x="-3" y="-1" rx="0" ry="0" width="6" height="2" />
</g>
<g transform="matrix(1 0 0 1 2.5 -8)" >
<linearGradient id="SVGID_QNyXmetER9Pa8BpimsW7Ti_9" gradientUnits="userSpaceOnUse" gradientTransform="matrix(1 0 0 1 -34.5 -24)" x1="34.5" y1="4.191" x2="34.5" y2="53.767">
<stop offset="0%" style="stop-color:rgb(26,109,255);stop-opacity: 1"/>
<stop offset="100%" style="stop-color:rgb(200,34,255);stop-opacity: 1"/>
</linearGradient>
<rect style="stroke: none; stroke-width: 1; stroke-dasharray: none; stroke-linecap: butt; stroke-dashoffset: 0; stroke-linejoin: miter; stroke-miterlimit: 4; fill: url(#SVGID_QNyXmetER9Pa8BpimsW7Ti_9); fill-rule: nonzero; opacity: 1;" x="-1.5" y="-1" rx="0" ry="0" width="3" height="2" />
</g>
<g transform="matrix(1 0 0 1 -10.5 8.5)" >
<linearGradient id="SVGID_QNyXmetER9Pa8BpimsW7Tj_10" gradientUnits="userSpaceOnUse" gradientTransform="matrix(1 0 0 1 0 0)" x1="21.5" y1="36.777" x2="21.5" y2="43.16">
<stop offset="0%" style="stop-color:rgb(109,199,255);stop-opacity: 1"/>
<stop offset="100%" style="stop-color:rgb(230,171,255);stop-opacity: 1"/>
</linearGradient>
<path style="stroke: none; stroke-width: 1; stroke-dasharray: none; stroke-linecap: butt; stroke-dashoffset: 0; stroke-linejoin: miter; stroke-miterlimit: 4; fill: url(#SVGID_QNyXmetER9Pa8BpimsW7Tj_10); fill-rule: nonzero; opacity: 1;" transform=" translate(-21.5, -40.5)" d="M 26 43 L 17 43 C 16.448 43 16 42.552 16 42 L 16 39 C 16 38.448 16.448 38 17 38 L 26 38 C 26.552 38 27 38.448 27 39 L 27 42 C 27 42.552 26.552 43 26 43 z" stroke-linecap="round" />
</g>
</g>
</g>
</svg>